<svg width="134" height="116" viewBox="0 0 134 116" fill="none" xmlns="http://www.w3.org/2000/svg">
<path fill-rule="evenodd" clip-rule="evenodd" d="M67.1398 58.945C62.825 58.9372 59.3209 62.4286 59.3131 66.7433C59.3053 71.0581 62.7967 74.5622 67.1114 74.57C71.4262 74.5778 74.9303 71.0864 74.9381 66.7717C74.9459 62.4569 71.4545 58.9528 67.1398 58.945ZM49.9381 66.7264C49.9553 57.234 57.6644 49.5528 67.1567 49.57C76.6491 49.5872 84.3303 57.2963 84.3131 66.7887C84.2959 76.281 76.5868 83.9622 67.0944 83.945C57.6021 83.9278 49.9209 76.2187 49.9381 66.7264Z" fill="white"/>
<path fill-rule="evenodd" clip-rule="evenodd" d="M67.1851 33.9451C60.6954 33.9333 54.348 35.8462 48.9454 39.4419C43.5429 43.0376 39.328 48.1546 36.8336 54.1458C34.3393 60.137 33.6775 66.7333 34.9321 73.1006C36.1866 79.4679 39.3011 85.3201 43.8817 89.9174C45.7089 91.7512 45.7035 94.7192 43.8696 96.5465C42.0357 98.3737 39.0678 98.3684 37.2405 96.5344C31.3512 90.6237 27.3469 83.0994 25.7339 74.9129C24.1209 66.7264 24.9717 58.2454 28.1788 50.5424C31.3858 42.8395 36.805 36.2605 43.7511 31.6375C50.6972 27.0144 58.8582 24.555 67.2021 24.5701C75.546 24.5852 83.698 27.0742 90.6273 31.7224C97.5565 36.3706 102.952 42.9692 106.131 50.6837C109.31 58.3982 110.13 66.8822 108.487 75.0628C106.845 83.2435 102.813 90.7533 96.9026 96.6426C95.0687 98.4698 92.1007 98.4645 90.2735 96.6306C88.4462 94.7967 88.4516 91.8287 90.2855 90.0015C94.8827 85.4209 98.0184 79.5799 99.296 73.2172C100.574 66.8545 99.9357 60.2559 97.4631 54.2557C94.9905 48.2555 90.7941 43.1233 85.4047 39.508C80.0152 35.8927 73.6748 33.9568 67.1851 33.9451Z" fill="white"/>
<path fill-rule="evenodd" clip-rule="evenodd" d="M67.2297 9.57338C55.9197 9.55289 44.8577 12.8866 35.4424 19.1531C26.0271 25.4195 18.6815 34.3372 14.3344 44.7784C9.98736 55.2196 8.83409 66.7154 11.0204 77.812C13.2068 88.9087 18.6346 99.1078 26.6175 107.12C28.4447 108.954 28.4393 111.921 26.6054 113.749C24.7715 115.576 21.8036 115.571 19.9763 113.737C10.6847 104.411 4.36708 92.5402 1.82228 79.6243C-0.722512 66.7085 0.619826 53.328 5.67957 41.175C10.7393 29.0221 19.2892 18.6424 30.2481 11.3486C41.2069 4.05485 54.0825 0.174545 67.2467 0.198401C80.4109 0.222258 93.2723 4.14921 104.205 11.4827C115.137 18.8161 123.649 29.2267 128.665 41.3979C133.681 53.5692 134.974 66.9544 132.383 79.8609C129.791 92.7675 123.431 104.616 114.105 113.907C112.271 115.735 109.303 115.729 107.476 113.895C105.649 112.061 105.654 109.093 107.488 107.266C115.5 99.2833 120.965 89.104 123.191 78.0153C125.418 66.9267 124.306 55.4268 119.997 44.9699C115.688 34.513 108.375 25.5688 98.9821 19.2682C89.5896 12.9677 78.5397 9.59388 67.2297 9.57338Z" fill="white"/>
</svg>
