<svg width="131" height="120" viewBox="0 0 131 120" fill="none" xmlns="http://www.w3.org/2000/svg">
<path d="M70.6434 3.87216C68.2423 -0.283139 62.2479 -0.294019 59.8318 3.85257L42.816 33.055C41.6224 35.1033 39.5634 36.4989 37.2186 36.8487L5.42046 41.5925C0.0797443 42.3893 -1.80534 49.1272 2.34657 52.5797L25.9928 72.2427C28.1816 74.0628 29.2072 76.9295 28.6696 79.725L22.4159 112.246C21.4273 117.387 26.8187 121.392 31.4553 118.962L61.4176 103.254C63.6981 102.059 66.4212 102.064 68.6973 103.268L98.6025 119.083C103.23 121.531 108.636 117.545 107.666 112.4L101.53 79.8571C101.003 77.0596 102.039 74.1967 104.234 72.3845L127.952 52.8073C132.116 49.3699 130.255 42.6252 124.918 41.8091L93.1369 36.9501C90.7934 36.5918 88.7394 35.1887 87.5533 33.136L70.6434 3.87216Z" fill="white"/>
</svg>
