<svg width="180" height="52" viewBox="0 0 180 52" fill="none" xmlns="http://www.w3.org/2000/svg">
<path d="M28.2296 9.17969V37.6804H20.544V15.3029H10.8388V37.6804H3.15332V9.17969H28.2296ZM33.4208 38.0701V32.0582H34.8233C35.646 32.0582 36.2959 31.9932 36.7727 31.8634C37.2589 31.7242 37.6329 31.4829 37.8947 31.1397C38.1659 30.7871 38.395 30.2955 38.5819 29.6646L38.8624 28.8296L28.0914 9.17969H36.0575L42.06 20.7581L46.6601 9.17969H54.5141L44.6406 31.4459C44.0983 32.6148 43.4532 33.7049 42.7052 34.7162C41.9572 35.7181 41.0269 36.53 39.9142 37.1515C38.8017 37.7639 37.4226 38.0701 35.777 38.0701H33.4208ZM54.1164 15.4143V9.17969H79.0802V15.4143H70.4413V37.6804H62.7556V15.4143H54.1164ZM78.0655 37.6804V9.17969H98.7663V15.4143H85.8632V20.3128H97.7007V26.5473H85.8632V31.4459H98.7101V37.6804H78.0655ZM98.6842 37.6804V9.17969H111.138C113.326 9.17969 115.163 9.47194 116.65 10.0565C118.146 10.641 119.273 11.4666 120.03 12.5335C120.797 13.6004 121.18 14.8576 121.18 16.3049C121.18 17.3533 120.947 18.3089 120.479 19.1717C120.021 20.0344 119.375 20.7581 118.543 21.3426C117.711 21.9178 116.739 22.3168 115.626 22.5394V22.8177C116.86 22.8641 117.982 23.1749 118.992 23.7501C120.002 24.3161 120.806 25.1 121.404 26.102C122.003 27.0947 122.302 28.2637 122.302 29.6089C122.302 31.1675 121.891 32.5545 121.068 33.7699C120.255 34.9853 119.095 35.9408 117.59 36.6367C116.084 37.3325 114.289 37.6804 112.204 37.6804H98.6842ZM106.482 31.5016H110.128C111.438 31.5016 112.419 31.2603 113.074 30.7778C113.728 30.2862 114.056 29.5625 114.056 28.607C114.056 27.939 113.901 27.373 113.592 26.9091C113.284 26.4453 112.844 26.0927 112.274 25.8515C111.713 25.6103 111.035 25.4897 110.241 25.4897H106.482V31.5016ZM106.482 20.7024H109.679C110.362 20.7024 110.965 20.5957 111.489 20.3824C112.013 20.169 112.419 19.8628 112.709 19.4639C113.008 19.0557 113.158 18.5594 113.158 17.9748C113.158 17.0935 112.84 16.4209 112.204 15.9569C111.568 15.4838 110.764 15.2473 109.792 15.2473H106.482V20.7024ZM147.645 44.5273V31.7242H149.665C150.338 31.3159 150.946 30.7408 151.488 29.9985C152.039 29.2564 152.507 28.1941 152.891 26.8117C153.283 25.4294 153.573 23.5785 153.76 21.2591L154.714 9.17969H175.022V31.7242H178.051V44.5273H170.534V37.6804H155.162V44.5273H147.645ZM158.585 31.7242H167.504V15.4143H161.726L161.277 21.2591C161.147 23.0032 160.945 24.5294 160.674 25.8375C160.413 27.1364 160.099 28.2683 159.735 29.2331C159.379 30.1887 158.996 31.0191 158.585 31.7242Z" fill="black"/>
<path fill-rule="evenodd" clip-rule="evenodd" d="M152.669 19.8675C152.669 38.2285 134.062 51.9992 134.062 51.9992C134.062 51.9992 115.454 38.2285 115.454 19.8675C115.454 10.6869 120.106 1.50647 134.062 1.50647C148.017 1.50647 152.669 10.6869 152.669 19.8675ZM134.062 29.048C139.2 29.048 143.365 24.9377 143.365 19.8675C143.365 14.7972 139.2 10.6869 134.062 10.6869C128.924 10.6869 124.758 14.7972 124.758 19.8675C124.758 24.9377 128.924 29.048 134.062 29.048Z" fill="white"/>
<path d="M54.1162 15.4143V9.17969H79.0801V15.4143H70.441V37.6804H62.7555V15.4143H54.1162ZM78.0654 37.6804V9.17969H98.7662V15.4143H85.8631V20.3128H97.7006V26.5473H85.8631V31.4459H98.71V37.6804H78.0654ZM98.6841 37.6804V9.17969H111.138C113.326 9.17969 115.163 9.47194 116.65 10.0565C118.145 10.641 119.272 11.4666 120.03 12.5335C120.796 13.6004 121.18 14.8576 121.18 16.3049C121.18 17.3533 120.946 18.3089 120.479 19.1717C120.021 20.0344 119.375 20.7581 118.543 21.3426C117.711 21.9178 116.739 22.3168 115.626 22.5394V22.8177C116.86 22.8641 117.982 23.1749 118.992 23.7501C120.002 24.3161 120.806 25.1 121.404 26.102C122.003 27.0947 122.301 28.2637 122.301 29.6089C122.301 31.1675 121.89 32.5545 121.067 33.7699C120.254 34.9853 119.095 35.9408 117.589 36.6367C116.084 37.3325 114.289 37.6804 112.204 37.6804H98.6841ZM106.482 31.5016H110.128C111.438 31.5016 112.419 31.2603 113.074 30.7778C113.728 30.2862 114.056 29.5625 114.056 28.607C114.056 27.939 113.901 27.373 113.592 26.9091C113.284 26.4453 112.844 26.0927 112.274 25.8515C111.713 25.6103 111.035 25.4897 110.241 25.4897H106.482V31.5016ZM106.482 20.7024H109.679C110.362 20.7024 110.965 20.5957 111.488 20.3824C112.012 20.169 112.419 19.8628 112.709 19.4639C113.008 19.0557 113.158 18.5594 113.158 17.9748C113.158 17.0935 112.84 16.4209 112.204 15.9569C111.568 15.4838 110.764 15.2473 109.792 15.2473H106.482V20.7024ZM147.645 44.5273V31.7242H149.664C150.338 31.3159 150.946 30.7408 151.488 29.9985C152.039 29.2564 152.507 28.1941 152.891 26.8117C153.283 25.4294 153.573 23.5785 153.76 21.2591L154.713 9.17969H175.022V31.7242H178.05V44.5273H170.534V37.6804H155.162V44.5273H147.645ZM158.585 31.7242H167.504V15.4143H161.726L161.277 21.2591C161.146 23.0032 160.945 24.5294 160.674 25.8375C160.412 27.1364 160.099 28.2683 159.735 29.2331C159.379 30.1887 158.996 31.0191 158.585 31.7242Z" fill="black"/>
</svg>
