<svg width="698" height="923" viewBox="0 0 698 923" fill="none" xmlns="http://www.w3.org/2000/svg">
<path d="M37.3209 208L53.2627 206.636L37.3209 208ZM196.999 221.5L212.089 216.179L196.999 221.5ZM23.4996 482.5L7.63672 484.59L23.4996 482.5ZM196.999 678L200.226 662.329L196.999 678ZM685.599 884.966C694.141 882.702 699.229 873.942 696.965 865.401L660.071 726.207C657.807 717.666 649.047 712.577 640.505 714.841C631.964 717.105 626.875 725.864 629.139 734.406L661.934 858.133L538.207 890.929C529.665 893.193 524.576 901.952 526.84 910.494C529.104 919.036 537.864 924.125 546.406 921.861L685.599 884.966ZM346 488L352.159 473.233L346 488ZM346 708L352.132 693.222L346 708ZM135.269 0.59202C126.42 6.35427 118.166 12.449 110.48 18.809L130.88 43.4629C137.631 37.8765 144.904 32.504 152.73 27.408L135.269 0.59202ZM68.0473 63.4688C54.9828 81.0801 45.0146 99.3358 37.6863 117.218L67.2964 129.353C73.665 113.812 82.3465 97.9033 93.7478 82.5342L68.0473 63.4688ZM22.0031 177.349C20.7222 188.808 20.5452 199.614 21.3791 209.364L53.2627 206.636C52.6279 199.215 52.7294 190.527 53.805 180.905L22.0031 177.349ZM21.3791 209.364C22.3436 220.64 23.9058 231.331 26.0004 241.437L57.3345 234.943C55.5084 226.132 54.1235 216.701 53.2627 206.636L21.3791 209.364ZM48.7545 302.998C61.4374 324.985 77.5037 341.646 95.0321 352.722L112.126 325.671C99.3903 317.623 86.8152 304.937 76.4733 287.008L48.7545 302.998ZM165.322 366.686C189.885 360.9 209.802 343.238 218.913 316.036L188.57 305.873C182.836 322.993 171.335 332.394 157.984 335.539L165.322 366.686ZM220.894 247.663C218.883 237.685 215.97 227.186 212.089 216.179L181.91 226.821C185.341 236.551 187.836 245.606 189.524 253.985L220.894 247.663ZM212.089 216.179C208.178 205.088 202.454 195.051 195.346 186.392L170.612 206.696C175.37 212.491 179.244 219.261 181.91 226.821L212.089 216.179ZM136.121 153.059C114.297 150.25 91.2099 155.642 70.4947 170.76L89.3586 196.608C103.587 186.225 118.488 183.053 132.035 184.797L136.121 153.059ZM29.8862 220.67C21.6281 236.903 14.7943 256.15 9.75891 278.617L40.9843 285.616C45.5284 265.34 51.5395 248.68 58.4076 235.18L29.8862 220.67ZM1.37939 337.92C0.0908079 356.042 -0.307404 375.677 0.305605 396.908L32.2923 395.984C31.7071 375.716 32.0927 357.152 33.2988 340.19L1.37939 337.92ZM4.22601 455.456C5.18773 464.905 6.32206 474.615 7.63672 484.59L39.3624 480.41C38.0876 470.736 36.9902 461.34 36.0615 452.216L4.22601 455.456ZM7.63672 484.59C8.74731 493.018 9.94806 501.114 11.2569 508.893L42.8134 503.584C41.5755 496.227 40.4299 488.51 39.3624 480.41L7.63672 484.59ZM22.193 557.608C27.4724 575.392 33.9707 591.214 42.1612 605.267L69.8082 589.154C63.1723 577.768 57.5919 564.408 52.8698 548.501L22.193 557.608ZM76.6244 646.005C89.6495 656.704 104.641 665.366 121.766 672.598L134.215 643.119C119.372 636.851 107.158 629.674 96.935 621.277L76.6244 646.005ZM169.666 688.187C177.358 690.126 185.389 691.945 193.773 693.671L200.226 662.329C192.236 660.684 184.665 658.966 177.486 657.157L169.666 688.187ZM193.773 693.671C202.485 695.465 211.192 696.759 219.848 697.589L222.906 665.736C215.363 665.012 207.79 663.886 200.226 662.329L193.773 693.671ZM272.322 697.153C290.218 695.16 307.475 691.344 323.635 686.057L313.685 655.643C299.583 660.256 284.473 663.602 268.779 665.35L272.322 697.153ZM371.72 664.143C388.067 654.201 402.304 642.418 413.332 629.292L388.832 608.707C380.402 618.74 368.983 628.354 355.092 636.802L371.72 664.143ZM437.223 576.388C439.068 556.588 433.18 536.955 419.067 519.266L394.053 539.223C403.388 550.925 406.383 562.453 405.361 573.417L437.223 576.388ZM376.112 484.719C368.809 480.683 360.83 476.85 352.159 473.233L339.84 502.767C347.539 505.979 354.454 509.312 360.637 512.728L376.112 484.719ZM352.159 473.233C340.81 468.499 329.726 465.557 319.026 464.343L315.418 496.139C322.814 496.978 330.972 499.068 339.84 502.767L352.159 473.233ZM251.225 484.836C233.904 500.228 223.142 522.292 219.522 546.522L251.17 551.25C253.869 533.189 261.643 518.387 272.481 508.757L251.225 484.836ZM226.564 612.962C233.46 632.335 244.699 651.462 260.693 668.968L284.317 647.384C271.138 632.958 262.147 617.502 256.71 602.23L226.564 612.962ZM311.231 708.799C320.104 713.856 329.643 718.535 339.867 722.778L352.132 693.222C343.094 689.471 334.753 685.373 327.076 680.998L311.231 708.799ZM339.867 722.778C346.477 725.521 356.025 729.7 367.848 735.01L380.96 705.82C369.057 700.473 359.175 696.145 352.132 693.222L339.867 722.778ZM424.046 760.795C441.68 769.007 460.704 777.952 480.162 787.184L493.88 758.274C474.358 749.011 455.264 740.033 437.554 731.786L424.046 760.795ZM536.07 813.94C555.434 823.29 574.312 832.497 591.757 841.118L605.935 812.43C588.386 803.757 569.418 794.507 549.984 785.123L536.07 813.94ZM646.824 868.911C658.161 874.813 667.227 879.712 673.462 883.335L689.537 855.665C682.653 851.666 673.067 846.497 661.601 840.527L646.824 868.911Z" fill="#FDCF4D"/>
</svg>
