<svg width="116" height="115" viewBox="0 0 116 115" fill="none" xmlns="http://www.w3.org/2000/svg">
<path d="M24.0464 1.75937C25.8737 3.59326 25.8683 6.56122 24.0344 8.38848L8.38111 23.9851C6.54721 25.8124 3.57925 25.807 1.75199 23.9731C-0.0752723 22.1392 -0.0698934 19.1713 1.764 17.344L17.4173 1.74735C19.2512 -0.0799088 22.2191 -0.0745299 24.0464 1.75937Z" fill="white"/>
<path fill-rule="evenodd" clip-rule="evenodd" d="M58.2201 8.26088C28.88 8.2077 5.0521 31.9494 4.99893 61.2895C4.94575 90.6296 28.6875 114.458 58.0276 114.511C87.3676 114.564 111.196 90.8222 111.249 61.4821C111.302 32.142 87.5602 8.31405 58.2201 8.26088ZM62.868 30.1443C62.8727 27.5555 60.7778 25.453 58.189 25.4483C55.6001 25.4437 53.4977 27.5385 53.493 30.1273L53.4364 61.3773C53.4334 62.9935 54.2633 64.4972 55.6323 65.3563L74.361 77.109C76.5538 78.485 79.447 77.8229 80.8231 75.6301C82.1991 73.4372 81.537 70.5441 79.3441 69.168L62.816 58.7963L62.868 30.1443Z" fill="white"/>
<path d="M92.4052 8.51239C90.5779 6.6785 90.5833 3.71054 92.4172 1.88328C94.2511 0.0560158 97.219 0.0613947 99.0463 1.89529L114.643 17.5486C116.47 19.3825 116.465 22.3504 114.631 24.1777C112.797 26.005 109.829 25.9996 108.002 24.1657L92.4052 8.51239Z" fill="white"/>
</svg>
