<svg width="203" height="59" viewBox="0 0 203 59" fill="none" xmlns="http://www.w3.org/2000/svg">
<path d="M31.8361 10.4155V42.7528H23.1685V17.363H12.2232V42.7528H3.55566V10.4155H31.8361ZM37.6907 43.195V36.3738H39.2723C40.2002 36.3738 40.9331 36.3001 41.4709 36.1528C42.0192 35.9948 42.441 35.7211 42.7362 35.3317C43.0421 34.9317 43.3004 34.3738 43.5113 33.658L43.8276 32.7106L31.6803 10.4155H40.6642L47.4338 23.5526L52.6217 10.4155H61.4792L50.3441 35.6791C49.7325 37.0054 49.0049 38.2422 48.1614 39.3897C47.3178 40.5265 46.2686 41.4476 45.0138 42.1528C43.7591 42.8476 42.2038 43.195 40.3479 43.195H37.6907ZM61.0307 17.4894V10.4155H89.1843V17.4894H79.4415V42.7528H70.7738V17.4894H61.0307ZM88.04 42.7528V10.4155H111.386V17.4894H96.8341V23.0473H110.184V30.1211H96.8341V35.6791H111.322V42.7528H88.04ZM111.293 42.7528V10.4155H125.339C127.806 10.4155 129.878 10.7471 131.555 11.4103C133.242 12.0735 134.512 13.0103 135.366 14.2209C136.231 15.4314 136.663 16.8577 136.663 18.4999C136.663 19.6894 136.4 20.7736 135.873 21.7526C135.356 22.7315 134.628 23.5526 133.69 24.2157C132.751 24.8684 131.655 25.3211 130.4 25.5737V25.8894C131.792 25.9421 133.057 26.2947 134.196 26.9473C135.335 27.5895 136.242 28.4789 136.917 29.6158C137.592 30.7421 137.929 32.0685 137.929 33.5948C137.929 35.3633 137.465 36.937 136.537 38.3159C135.62 39.6949 134.312 40.7792 132.614 41.5686C130.917 42.3581 128.892 42.7528 126.541 42.7528H111.293ZM120.087 35.7423H124.2C125.676 35.7423 126.783 35.4686 127.521 34.9211C128.26 34.3633 128.629 33.5422 128.629 32.458C128.629 31.7001 128.455 31.0579 128.106 30.5316C127.759 30.0053 127.263 29.6053 126.619 29.3316C125.987 29.0579 125.222 28.9211 124.326 28.9211H120.087V35.7423ZM120.087 23.4894H123.693C124.463 23.4894 125.144 23.3683 125.734 23.1263C126.325 22.8842 126.783 22.5368 127.11 22.0841C127.448 21.621 127.616 21.0578 127.616 20.3946C127.616 19.3946 127.258 18.6315 126.541 18.1051C125.824 17.5683 124.917 17.2999 123.82 17.2999H120.087V23.4894ZM166.51 50.5214V35.9948H168.789C169.547 35.5317 170.233 34.8791 170.844 34.0369C171.466 33.1948 171.994 31.9895 172.426 30.4211C172.869 28.8527 173.195 26.7526 173.407 24.1211L174.482 10.4155H197.385V35.9948H200.802V50.5214H192.324V42.7528H174.988V50.5214H166.51ZM178.848 35.9948H188.907V17.4894H182.39L181.884 24.1211C181.737 26.1 181.51 27.8316 181.204 29.3158C180.909 30.7895 180.556 32.0737 180.145 33.1685C179.744 34.2527 179.311 35.1948 178.848 35.9948Z" fill="white"/>
<path fill-rule="evenodd" clip-rule="evenodd" d="M172.177 22.5421C172.177 43.3747 151.192 58.9992 151.192 58.9992C151.192 58.9992 130.207 43.3747 130.207 22.5421C130.207 12.1257 135.453 1.70935 151.192 1.70935C166.931 1.70935 172.177 12.1257 172.177 22.5421ZM151.192 32.9584C156.988 32.9584 161.685 28.2948 161.685 22.5421C161.685 16.7892 156.988 12.1257 151.192 12.1257C145.398 12.1257 140.7 16.7892 140.7 22.5421C140.7 28.2948 145.398 32.9584 151.192 32.9584Z" fill="#FDCC46"/>
<path d="M61.0312 17.4894V10.4155H89.185V17.4894H79.442V42.7528H70.7744V17.4894H61.0312ZM88.0406 42.7528V10.4155H111.386V17.4894H96.8347V23.0473H110.185V30.1211H96.8347V35.6791H111.323V42.7528H88.0406ZM111.294 42.7528V10.4155H125.34C127.806 10.4155 129.878 10.7471 131.555 11.4103C133.242 12.0735 134.513 13.0103 135.367 14.2209C136.231 15.4314 136.664 16.8577 136.664 18.4999C136.664 19.6894 136.4 20.7736 135.873 21.7526C135.357 22.7315 134.629 23.5526 133.691 24.2157C132.752 24.8684 131.656 25.3211 130.401 25.5737V25.8894C131.793 25.9421 133.058 26.2947 134.197 26.9473C135.335 27.5895 136.242 28.4789 136.917 29.6158C137.592 30.7421 137.929 32.0685 137.929 33.5948C137.929 35.3633 137.466 36.937 136.537 38.3159C135.62 39.6949 134.313 40.7792 132.615 41.5686C130.917 42.3581 128.892 42.7528 126.541 42.7528H111.294ZM120.088 35.7423H124.2C125.677 35.7423 126.784 35.4686 127.522 34.9211C128.26 34.3633 128.629 33.5422 128.629 32.458C128.629 31.7001 128.455 31.0579 128.107 30.5316C127.759 30.0053 127.263 29.6053 126.62 29.3316C125.988 29.0579 125.223 28.9211 124.327 28.9211H120.088V35.7423ZM120.088 23.4894H123.694C124.464 23.4894 125.144 23.3683 125.734 23.1263C126.325 22.8842 126.784 22.5368 127.111 22.0841C127.448 21.621 127.617 21.0578 127.617 20.3946C127.617 19.3946 127.258 18.6315 126.541 18.1051C125.824 17.5683 124.917 17.2999 123.821 17.2999H120.088V23.4894ZM166.511 50.5214V35.9948H168.788C169.548 35.5317 170.233 34.8791 170.845 34.0369C171.467 33.1948 171.994 31.9895 172.427 30.4211C172.87 28.8527 173.196 26.7526 173.407 24.1211L174.483 10.4155H197.386V35.9948H200.802V50.5214H192.324V42.7528H174.989V50.5214H166.511ZM178.848 35.9948H188.908V17.4894H182.391L181.885 24.1211C181.738 26.1 181.511 27.8316 181.205 29.3158C180.909 30.7895 180.556 32.0737 180.145 33.1685C179.744 34.2527 179.312 35.1948 178.848 35.9948Z" fill="white"/>
</svg>
