<svg width="26" height="24" viewBox="0 0 26 24" fill="none" xmlns="http://www.w3.org/2000/svg">
<path d="M23.6296 2.54248C22.2512 1.10447 20.424 0.226787 18.4781 0.0679796C16.5322 -0.0908282 14.5959 0.479708 13.0189 1.67653C11.3644 0.396051 9.30515 -0.184579 7.25573 0.0515635C5.20632 0.287706 3.31901 1.32308 1.97386 2.94919C0.628711 4.57529 -0.0743573 6.67135 0.00623561 8.81525C0.0868286 10.9591 0.945096 12.9917 2.4082 14.5035L10.4833 22.9194C11.1595 23.6119 12.0702 24 13.0189 24C13.9676 24 14.8784 23.6119 15.5545 22.9194L23.6296 14.5035C25.1478 12.914 26 10.764 26 8.52297C26 6.28195 25.1478 4.13196 23.6296 2.54248ZM21.7961 12.6362L13.7211 21.0387C13.6292 21.1352 13.5198 21.2119 13.3993 21.2642C13.2788 21.3165 13.1495 21.3434 13.0189 21.3434C12.8883 21.3434 12.759 21.3165 12.6385 21.2642C12.518 21.2119 12.4086 21.1352 12.3167 21.0387L4.24167 12.5957C3.2219 11.511 2.65086 10.0539 2.65086 8.5365C2.65086 7.0191 3.2219 5.56202 4.24167 4.47734C5.28084 3.40977 6.68236 2.81115 8.14266 2.81115C9.60297 2.81115 11.0045 3.40977 12.0437 4.47734C12.1645 4.60416 12.3084 4.70482 12.4668 4.77352C12.6253 4.84221 12.7952 4.87757 12.9669 4.87757C13.1385 4.87757 13.3085 4.84221 13.467 4.77352C13.6254 4.70482 13.7692 4.60416 13.8901 4.47734C14.9293 3.40977 16.3308 2.81115 17.7911 2.81115C19.2514 2.81115 20.6529 3.40977 21.6921 4.47734C22.7259 5.54781 23.3157 6.99698 23.3351 8.51443C23.3546 10.0319 22.8021 11.4969 21.7961 12.5957V12.6362Z" fill="black"/>
</svg>
